<svg width="1852" height="302" xmlns="http://www.w3.org/2000/svg" xmlns:xlink="http://www.w3.org/1999/xlink" overflow="hidden"><defs><filter id="fx0" x="-10%" y="-10%" width="120%" height="120%" filterUnits="userSpaceOnUse" primitiveUnits="userSpaceOnUse"><feComponentTransfer color-interpolation-filters="sRGB"><feFuncR type="discrete" tableValues="0 0"/><feFuncG type="discrete" tableValues="0 0"/><feFuncB type="discrete" tableValues="0 0"/><feFuncA type="linear" slope="0.4" intercept="0"/></feComponentTransfer><feGaussianBlur stdDeviation="2.47106 2.46834"/></filter><clipPath id="clip1"><rect x="0" y="0" width="1852" height="302"/></clipPath><clipPath id="clip2"><rect x="283" y="0" width="302" height="302"/></clipPath><clipPath id="clip3"><rect x="283" y="0" width="302" height="302"/></clipPath><clipPath id="clip4"><rect x="283" y="0" width="302" height="302"/></clipPath><clipPath id="clip5"><rect x="163" y="42" width="916" height="272"/></clipPath><clipPath id="clip6"><rect x="0" y="0" width="1240" height="318"/></clipPath></defs><g clip-path="url(#clip1)"><rect x="0" y="0" width="1852" height="301.667" fill-opacity="0"/><g clip-path="url(#clip2)"><g clip-path="url(#clip3)"><g clip-path="url(#clip4)"><path d="M301.667 150.834C301.667 234.137 234.137 301.667 150.834 301.667 67.5305 301.667-1.94861e-14 234.137-1.94861e-14 150.834-5.84584e-14 67.5305 67.5305-3.89722e-14 150.834-3.89722e-14 234.137-5.84584e-14 301.667 67.5305 301.667 150.834Z" fill="#E04F5F" transform="matrix(1.0011 0 0 1 283 0)"/><path d="M63.0758 73.6068C63.0758 67.7901 67.7901 63.0758 73.6068 63.0758L150.834 63.0758 194.712 99.9341 194.712 228.06C194.712 233.877 189.998 238.591 184.181 238.591L73.6068 238.591C67.7901 238.591 63.0758 233.877 63.0758 228.06L63.0758 73.6068Z" fill="#FFFFFF" transform="matrix(1.0011 0 0 1 283 0)"/><path d="M150.834 63.0758 150.834 89.4031C150.834 95.2198 155.548 99.9341 161.364 99.9341L194.712 99.9341 150.834 63.0758Z" fill="#F0F1F1" transform="matrix(1.0011 0 0 1 283 0)"/><path d="M211.167 113.811 224.879 85.0153 238.591 113.811 238.591 219.394 211.167 219.394Z" fill="#F4D0A1" transform="matrix(1.0011 0 0 1 283 0)"/><path d="M238.591 128.894 238.591 113.811 224.879 85.0153 224.879 128.894Z" fill="#EDBC7C" transform="matrix(1.0011 0 0 1 283 0)"/><path d="M238.591 230.364C238.591 234.908 234.908 238.591 230.364 238.591L219.394 238.591C214.85 238.591 211.167 234.908 211.167 230.364L211.167 224.879 238.591 224.879 238.591 230.364Z" fill="#F79392" transform="matrix(1.0011 0 0 1 283 0)"/><path d="M170.031 123.409C170.031 124.918 168.796 126.152 167.288 126.152L126.152 126.152C124.643 126.152 123.409 124.918 123.409 123.409L123.409 123.409C123.409 121.901 124.643 120.667 126.152 120.667L167.288 120.667C168.796 120.667 170.031 121.901 170.031 123.409L170.031 123.409Z" fill="#E2E4E5" transform="matrix(1.0011 0 0 1 283 0)"/><path d="M153.576 137.121C153.576 138.63 152.342 139.864 150.834 139.864L126.152 139.864C124.643 139.864 123.409 138.63 123.409 137.121L123.409 137.121C123.409 135.613 124.643 134.379 126.152 134.379L150.834 134.379C152.342 134.379 153.576 135.613 153.576 137.121L153.576 137.121Z" fill="#E2E4E5" transform="matrix(1.0011 0 0 1 283 0)"/><path d="M170.031 159.061C170.031 160.569 168.796 161.803 167.288 161.803L126.152 161.803C124.643 161.803 123.409 160.569 123.409 159.061L123.409 159.061C123.409 157.552 124.643 156.318 126.152 156.318L167.288 156.318C168.796 156.318 170.031 157.552 170.031 159.061L170.031 159.061Z" fill="#E2E4E5" transform="matrix(1.0011 0 0 1 283 0)"/><path d="M153.576 172.773C153.576 174.281 152.342 175.515 150.834 175.515L126.152 175.515C124.643 175.515 123.409 174.281 123.409 172.773L123.409 172.773C123.409 171.265 124.643 170.031 126.152 170.031L150.834 170.031C152.342 170.031 153.576 171.265 153.576 172.773L153.576 172.773Z" fill="#E2E4E5" transform="matrix(1.0011 0 0 1 283 0)"/><path d="M170.031 194.712C170.031 196.221 168.796 197.455 167.288 197.455L126.152 197.455C124.643 197.455 123.409 196.221 123.409 194.712L123.409 194.712C123.409 193.204 124.643 191.97 126.152 191.97L167.288 191.97C168.796 191.97 170.031 193.204 170.031 194.712L170.031 194.712Z" fill="#E2E4E5" transform="matrix(1.0011 0 0 1 283 0)"/><path d="M153.576 208.424C153.576 209.933 152.342 211.167 150.834 211.167L126.152 211.167C124.643 211.167 123.409 209.933 123.409 208.424L123.409 208.424C123.409 206.916 124.643 205.682 126.152 205.682L150.834 205.682C152.342 205.682 153.576 206.916 153.576 208.424L153.576 208.424Z" fill="#E2E4E5" transform="matrix(1.0011 0 0 1 283 0)"/><path d="M96.1687 142.606 85.8188 132.256C84.7465 131.187 84.7465 129.448 85.8188 128.379 86.8911 127.306 88.627 127.306 89.6966 128.379L95.8012 134.483 107.591 120.335C108.562 119.169 110.289 119.013 111.452 119.984 112.615 120.955 112.774 122.683 111.803 123.845L96.1687 142.606Z" fill="#17B198" transform="matrix(1.0011 0 0 1 283 0)"/><path d="M96.1687 178.258 85.8188 167.908C84.7465 166.838 84.7465 165.1 85.8188 164.03 86.8911 162.958 88.627 162.958 89.6966 164.03L95.8012 170.135 107.591 155.987C108.562 154.821 110.289 154.665 111.452 155.636 112.615 156.606 112.774 158.334 111.803 159.497L96.1687 178.258Z" fill="#17B198" transform="matrix(1.0011 0 0 1 283 0)"/><path d="M96.1687 213.909 85.8188 203.559C84.7465 202.49 84.7465 200.751 85.8188 199.682 86.8911 198.609 88.627 198.609 89.6966 199.682L95.8012 205.786 107.591 191.638C108.562 190.473 110.289 190.316 111.452 191.287 112.615 192.258 112.774 193.986 111.803 195.148L96.1687 213.909Z" fill="#17B198" transform="matrix(1.0011 0 0 1 283 0)"/><path d="M211.167 216.652 238.591 216.652 238.591 224.879 211.167 224.879Z" fill="#FACB1B" transform="matrix(1.0011 0 0 1 283 0)"/><path d="M211.167 219.394 224.879 219.394 224.879 224.879 211.167 224.879Z" fill="#FBE158" transform="matrix(1.0011 0 0 1 283 0)"/><path d="M224.915 84.9714 219.822 95.6641C221.226 97.5235 222.981 98.6835 224.915 98.6835 226.848 98.6835 228.603 97.5262 230.007 95.6641L224.915 84.9714Z" fill="#3E3E3F" transform="matrix(1.0011 0 0 1 283 0)"/><path d="M231.735 117.924C228.57 117.924 225.905 115.78 225.118 112.865 225.046 112.599 224.715 112.599 224.643 112.865 223.853 115.78 221.188 117.924 218.023 117.924 215.138 117.924 212.667 116.142 211.655 113.616 211.548 113.35 211.167 113.424 211.167 113.712L211.167 219.394 238.591 219.394 238.591 113.712C238.591 113.424 238.21 113.353 238.103 113.619 237.091 116.142 234.62 117.924 231.735 117.924Z" fill="#0484AB" transform="matrix(1.0011 0 0 1 283 0)"/><path d="M211.167 219.394 211.167 113.792C211.167 113.487 211.57 113.41 211.688 113.693 212.716 116.177 215.165 117.924 218.023 117.924 221.201 117.924 223.875 115.761 224.651 112.826 224.69 112.684 224.879 112.703 224.879 112.851L224.879 219.394 211.167 219.394Z" fill="#21B2D1" transform="matrix(1.0011 0 0 1 283 0)"/><path d="M211.167 224.879 211.167 230.364C211.167 234.908 214.85 238.591 219.394 238.591L224.879 238.591 224.879 224.879 211.167 224.879Z" fill="#F7B4B4" transform="matrix(1.0011 0 0 1 283 0)"/></g></g></g><g clip-path="url(#clip5)" filter="url(#fx0)" transform="translate(486 -8)"><g clip-path="url(#clip6)"><path d="M6.89 0 64.13-166.42 89.305-166.42 145.22 0 123.49 0 109.445-42.665 43.195-42.665 28.62 0ZM48.495-58.83 104.145-58.83 76.32-141.245ZM223.785 3.18C213.627 3.18 204.153 0.441666 195.364-5.035 186.575-10.5117 179.486-18.2408 174.098-28.2225 168.709-38.2042 166.015-49.9967 166.015-63.6 166.015-77.5567 168.709-89.4817 174.098-99.375 179.486-109.268 186.575-116.821 195.364-122.032 204.153-127.244 213.627-129.85 223.785-129.85 230.94-129.85 237.366-128.768 243.064-126.604 248.761-124.44 253.73-121.458 257.97-117.66 262.21-113.862 265.721-109.555 268.504-104.741 271.286-99.9271 273.34-94.87 274.665-89.57L253.465-87.715C251.257-95.0467 247.569-100.855 242.401-105.139 237.234-109.423 230.94-111.565 223.52-111.565 217.248-111.565 211.352-109.776 205.831-106.199 200.31-102.621 195.827-97.2771 192.383-90.1662 188.938-83.0554 187.215-74.2 187.215-63.6 187.215-53.795 188.783-45.2929 191.919-38.0937 195.055-30.8946 199.361-25.3075 204.837-21.3325 210.314-17.3575 216.542-15.37 223.52-15.37 233.325-15.37 240.767-17.7771 245.846-22.5912 250.925-27.4054 253.465-34.0967 253.465-42.665L274.665-42.665C274.665-33.8317 272.589-25.97 268.438-19.08 264.286-12.19 258.39-6.7575 250.749-2.7825 243.108 1.1925 234.12 3.18 223.785 3.18ZM355.053 3.18C348.163 3.18 341.98 1.855 336.503-0.795 331.027-3.445 326.698-7.42 323.518-12.72 320.338-18.02 318.748-24.645 318.748-32.595L318.748-161.915 339.153-161.915 339.153-33.125C339.153-20.0517 345.248-13.515 357.438-13.515 361.06-13.515 364.571-13.9125 367.972-14.7075 371.373-15.5025 375.193-16.695 379.433-18.285L382.348-3.445C377.843-1.50167 373.36 0.0883334 368.9 1.325 364.439 2.56167 359.823 3.18 355.053 3.18ZM298.343-112.36 298.343-126.67 379.168-126.67 379.168-112.36ZM427.592-156.615C423.352-156.615 419.995-157.83 417.522-160.259 415.048-162.688 413.812-165.89 413.812-169.865 413.812-173.752 415.048-176.843 417.522-179.14 419.995-181.437 423.352-182.585 427.592-182.585 431.832-182.585 435.188-181.437 437.662-179.14 440.135-176.843 441.372-173.752 441.372-169.865 441.372-165.89 440.135-162.688 437.662-160.259 435.188-157.83 431.832-156.615 427.592-156.615ZM417.257 0 417.257-126.935 437.927-126.935 437.927 0ZM472.937-126.67 496.522-126.67 536.272-17.755 533.357-17.755 573.107-126.67 596.692-126.67 546.077 0 523.552 0ZM639.925-156.615C635.685-156.615 632.328-157.83 629.855-160.259 627.382-162.688 626.145-165.89 626.145-169.865 626.145-173.752 627.382-176.843 629.855-179.14 632.328-181.437 635.685-182.585 639.925-182.585 644.165-182.585 647.522-181.437 649.995-179.14 652.468-176.843 653.705-173.752 653.705-169.865 653.705-165.89 652.468-162.688 649.995-160.259 647.522-157.83 644.165-156.615 639.925-156.615ZM629.59 0 629.59-126.935 650.26-126.935 650.26 0ZM746.22 3.18C739.33 3.18 733.147 1.855 727.67-0.795 722.193-3.445 717.865-7.42 714.685-12.72 711.505-18.02 709.915-24.645 709.915-32.595L709.915-161.915 730.32-161.915 730.32-33.125C730.32-20.0517 736.415-13.515 748.605-13.515 752.227-13.515 755.738-13.9125 759.139-14.7075 762.54-15.5025 766.36-16.695 770.6-18.285L773.515-3.445C769.01-1.50167 764.527 0.0883334 760.066 1.325 755.605 2.56167 750.99 3.18 746.22 3.18ZM689.51-112.36 689.51-126.67 770.335-126.67 770.335-112.36ZM786.163-126.67 809.218-126.67 850.558-18.02 845.788-18.02 877.853-126.67 899.053-126.67 851.353 25.44C847.378 38.16 842.078 47.965 835.453 54.855 828.828 61.745 820.348 65.19 810.013 65.19 804.448 65.19 799.17 64.395 794.18 62.805 789.189 61.215 784.043 58.9183 778.743 55.915L778.743 36.835C783.425 40.545 787.952 43.195 792.325 44.785 796.697 46.375 801.268 47.17 806.038 47.17 811.338 47.17 815.777 45.4917 819.355 42.135 822.932 38.7783 825.913 34.4721 828.298 29.2162 830.683 23.9604 832.715 18.4617 834.393 12.72L838.103 0Z" fill="#FFFFFF" transform="matrix(1 0 0 0.998897 167.925 236)"/></g></g><text fill="#FFFFFF" font-family="Karla,Karla_MSFontService,sans-serif" font-weight="400" font-size="265" transform="matrix(1 0 0 0.998897 651.439 225)">Activity</text></g></svg>