<svg width="1760" height="1760" xmlns="http://www.w3.org/2000/svg" xmlns:xlink="http://www.w3.org/1999/xlink" xml:space="preserve" overflow="hidden"><defs><clipPath id="clip0"><rect x="1320" y="358" width="1760" height="1760"/></clipPath></defs><g clip-path="url(#clip0)" transform="translate(-1320 -358)"><path d="M3080 1238C3080 1724.01 2686.01 2118 2200 2118 1713.99 2118 1320 1724.01 1320 1238 1320 751.989 1713.99 358 2200 358 2686.01 358 3080 751.989 3080 1238Z" fill="#038DE8" fill-rule="evenodd"/><path d="M2323 1617 2077 1617 2108.26 1465 2291.74 1465Z" fill="#E1EFFA" fill-rule="evenodd"/><path d="M2323 1617 2291.7 1465 2108 1465 2260.24 1617Z" fill="#B6D4ED" fill-rule="evenodd"/><path d="M2011 1617 2389 1617 2389 1635 2011 1635Z" fill="#FFFFFF" fill-rule="evenodd"/><path d="M1751.94 840C1739.3 840 1729 850.351 1729 862.961L1729 1442.05C1729 1454.7 1739.3 1465 1751.94 1465L2648.09 1465C2660.67 1465 2671 1454.69 2671 1442.05L2671 862.961C2671 850.341 2660.66 840 2648.09 840L1751.94 840Z" fill="#34495E" fill-rule="evenodd"/><path d="M1776 888 2624 888 2624 1417 1776 1417Z" fill="#FF8E31" fill-rule="evenodd"/><path d="M2156.15 1214.17 2027.58 1214.17C2023.11 1214.17 2018.85 1212.78 2015.25 1210.12 2011.63 1207.43 2009.04 1203.78 2007.76 1199.52L1966.18 1062.79 1902 1062.79 1902 1038 1969.27 1038C1973.74 1038 1978 1039.39 1981.6 1042.06 1985.22 1044.74 1987.82 1048.4 1989.11 1052.65L2030.66 1189.38 2153.08 1189.38 2178.72 1105.11 2022.35 1105.11 2014.83 1080.31 2184.31 1080.31C2190.82 1080.31 2197.03 1083.43 2200.93 1088.67 2204.81 1093.91 2206.02 1100.74 2204.11 1106.97L2175.98 1199.5C2174.69 1203.78 2172.1 1207.44 2168.55 1210.09 2164.93 1212.78 2160.66 1214.17 2156.15 1214.17ZM2156.24 1121.98 2027.47 1121.98 2032.61 1138.82 2151.14 1138.82 2156.24 1121.98ZM2146.04 1155.68 2140.9 1172.54 2042.84 1172.54 2037.73 1155.68 2146.04 1155.68ZM2045.91 1222.04C2033.45 1222.04 2023.37 1232.07 2023.37 1244.52 2023.37 1256.92 2033.45 1267 2045.91 1267 2058.36 1267 2068.45 1256.92 2068.45 1244.52 2068.45 1232.07 2058.35 1222.04 2045.91 1222.04ZM2137.83 1222.04C2125.38 1222.04 2115.3 1232.07 2115.3 1244.52 2115.3 1256.92 2125.38 1266.98 2137.83 1266.98 2150.3 1266.98 2160.39 1256.93 2160.39 1244.52 2160.39 1232.07 2150.3 1222.04 2137.83 1222.04Z" fill="#FFFFFF" fill-rule="evenodd"/><path d="M2231 1038 2499 1038 2499 1095 2231 1095Z" fill="#FFFFFF" fill-rule="evenodd"/><path d="M2231 1131 2499 1131 2499 1189 2231 1189Z" fill="#FFFFFF" fill-rule="evenodd"/><path d="M2279 1159C2279 1164.52 2274.3 1169 2268.5 1169 2262.7 1169 2258 1164.52 2258 1159 2258 1153.48 2262.7 1149 2268.5 1149 2274.3 1149 2279 1153.48 2279 1159Z" fill="#34495E" fill-rule="evenodd"/><path d="M2318 1158.99C2318 1164.5 2313.29 1169 2307.52 1169 2301.71 1169 2297 1164.51 2297 1158.99 2297 1153.46 2301.7 1149 2307.52 1149 2313.29 1149 2318 1153.46 2318 1158.99Z" fill="#34495E" fill-rule="evenodd"/><path d="M2356 1159C2356 1164.52 2351.3 1169 2345.5 1169 2339.7 1169 2335 1164.52 2335 1159 2335 1153.48 2339.7 1149 2345.5 1149 2351.3 1149 2356 1153.48 2356 1159Z" fill="#34495E" fill-rule="evenodd"/><path d="M2394 1158.99C2394 1164.5 2389.32 1169 2383.53 1169 2377.7 1169 2373 1164.51 2373 1158.99 2373 1153.46 2377.69 1149 2383.53 1149 2389.32 1149 2394 1153.46 2394 1158.99Z" fill="#34495E" fill-rule="evenodd"/><path d="M2433 1158.99C2433 1164.5 2428.31 1169 2422.51 1169 2416.74 1169 2412 1164.51 2412 1158.99 2412 1153.46 2416.73 1149 2422.51 1149 2428.3 1149 2433 1153.46 2433 1158.99Z" fill="#34495E" fill-rule="evenodd"/><path d="M2471 1159C2471 1164.52 2466.3 1169 2460.5 1169 2454.7 1169 2450 1164.52 2450 1159 2450 1153.48 2454.7 1149 2460.5 1149 2466.3 1149 2471 1153.48 2471 1159Z" fill="#34495E" fill-rule="evenodd"/><path d="M2257 1237 2282 1237 2282 1240 2257 1240Z" fill="#FFFFFF" fill-rule="evenodd"/><path d="M2281.52 1229.92 2263.98 1212.37 2266.42 1209.93 2283.97 1227.47Z" fill="#FFFFFF" fill-rule="evenodd"/><path d="M2284.01 1249.81 2266.46 1267.35 2264 1264.88 2281.54 1247.35Z" fill="#FFFFFF" fill-rule="evenodd"/><path d="M2448 1237 2473 1237 2473 1240 2448 1240Z" fill="#FFFFFF" fill-rule="evenodd"/><path d="M2445.26 1227.39 2462.83 1209.83 2465.27 1212.28 2447.71 1229.83Z" fill="#FFFFFF" fill-rule="evenodd"/><path d="M2447.77 1247.31 2465.33 1264.86 2462.87 1267.32 2445.3 1249.78Z" fill="#FFFFFF" fill-rule="evenodd"/><path d="M2433 1260.21C2433 1263.94 2429.95 1267 2426.18 1267L2303.83 1267C2300.08 1267 2297 1263.93 2297 1260.21L2297 1216.76C2297 1213.06 2300.09 1210 2303.83 1210L2426.18 1210C2429.95 1210 2433 1213.06 2433 1216.76L2433 1260.21Z" fill="#0575A5" fill-rule="evenodd"/><path d="M2433 1239 2433 1216.89C2433 1213.11 2429.95 1210 2426.18 1210L2303.83 1210C2300.08 1210 2297 1213.11 2297 1216.89L2297 1239 2433 1239Z" fill="#479ABD" fill-rule="evenodd"/><path d="M2347.32 1237.59C2348.27 1237.15 2349.02 1236.48 2349.6 1235.63 2350.15 1234.72 2350.43 1233.78 2350.43 1232.71 2350.43 1231.71 2350.2 1230.86 2349.78 1230.03 2349.31 1229.27 2348.72 1228.65 2348.07 1228.16 2347.36 1227.69 2346.59 1227.37 2345.76 1227.23 2344.86 1227.07 2343.61 1227.01 2341.85 1227.01L2333 1227.01 2333 1249.6 2340.51 1249.6C2343.35 1249.57 2345.16 1249.52 2345.9 1249.44 2347.07 1249.29 2348.12 1248.96 2348.89 1248.38 2349.7 1247.81 2350.37 1247 2350.83 1246.04 2351.29 1245.08 2351.53 1244.05 2351.53 1243.05 2351.53 1241.73 2351.18 1240.63 2350.43 1239.65 2349.69 1238.66 2348.66 1237.97 2347.32 1237.59ZM2337.45 1230.75 2340.03 1230.75C2342.1 1230.75 2343.41 1230.77 2343.83 1230.85 2344.59 1230.94 2345.13 1231.2 2345.52 1231.61 2345.91 1232.07 2346.1 1232.63 2346.1 1233.32 2346.1 1234.05 2345.86 1234.64 2345.41 1235.09 2344.97 1235.55 2344.36 1235.83 2343.64 1235.92 2343.19 1235.96 2342.1 1235.99 2340.41 1235.99L2337.45 1235.99 2337.45 1230.75 2337.45 1230.75ZM2346.29 1244.75C2345.84 1245.22 2345.32 1245.53 2344.64 1245.64 2344.23 1245.71 2343.2 1245.78 2341.61 1245.78L2337.45 1245.78 2337.45 1239.76 2341.06 1239.76C2343.09 1239.76 2344.42 1239.85 2345.04 1240.08 2345.62 1240.27 2346.1 1240.64 2346.43 1241.1 2346.74 1241.58 2346.9 1242.17 2346.9 1242.83 2346.9 1243.63 2346.69 1244.27 2346.29 1244.75ZM2368.44 1227 2372.91 1227 2372.91 1238.86C2372.91 1241.58 2372.78 1243.49 2372.52 1244.59 2372.3 1245.72 2371.85 1246.67 2371.24 1247.43 2370.55 1248.19 2369.72 1248.85 2368.58 1249.27 2367.51 1249.75 2366.1 1250 2364.37 1250 2362.21 1250 2360.63 1249.71 2359.54 1249.22 2358.44 1248.7 2357.62 1248.09 2356.96 1247.26 2356.34 1246.5 2355.9 1245.64 2355.69 1244.77 2355.42 1243.48 2355.27 1241.57 2355.27 1239.03L2355.27 1227 2359.73 1227 2359.73 1239.25C2359.73 1241.17 2359.78 1242.44 2359.9 1243.02 2360.11 1243.93 2360.52 1244.66 2361.24 1245.25 2361.99 1245.79 2362.97 1246.05 2364.21 1246.05 2365.48 1246.05 2366.43 1245.84 2367.08 1245.27 2367.73 1244.74 2368.12 1244.1 2368.22 1243.33 2368.4 1242.56 2368.45 1241.27 2368.45 1239.5L2368.45 1227 2368.44 1227ZM2396 1227 2387.87 1240.08 2387.87 1249.59 2383.4 1249.59 2383.4 1240.08 2375.3 1227 2380.56 1227 2385.76 1235.94 2390.85 1227 2396 1227 2396 1227Z" fill="#FFFFFF" fill-rule="evenodd"/><path d="M2448 1294.46 2448 1287.61 2444.54 1287.61 2444.54 1284.19 2441.01 1284.19 2441.01 1280.77 2437.48 1280.77 2437.48 1277.34 2434 1277.34 2434 1273.96 2430.5 1273.96 2430.5 1270.48 2427.03 1270.48 2427.03 1267.09 2423.54 1267.09 2423.54 1263.68 2420.01 1263.68 2420.01 1260.25 2416.53 1260.25 2416.53 1256.83 2413.01 1256.83 2413.01 1253.4 2409.53 1253.4 2409.53 1250 2406 1250 2406 1308.14 2413.01 1308.14 2413.01 1304.72 2416.53 1304.72 2416.53 1301.28 2420.01 1301.28 2420.01 1297.85 2423.54 1297.85 2423.54 1304.72 2427.03 1304.72 2427.03 1311.55 2430.5 1311.55 2430.5 1315 2437.48 1315 2437.48 1311.55 2441.01 1311.55 2441.01 1304.72 2437.48 1304.72 2437.48 1297.85 2434 1297.85 2434 1294.46Z" fill="#34495E" fill-rule="evenodd"/></g></svg>